<svg xmlns="http://www.w3.org/2000/svg" viewBox="0 0 100 100" width="32" height="32">
  <circle cx="50" cy="50" r="44" fill="#faf9f6" stroke="#BF953F" stroke-width="2.5" />
  
  <path d="M50,62 C43,58 35,50 36,40 C43,40 48,46 50,52 C52,46 57,40 64,40 C65,50 57,58 50,62 Z" fill="#800020" />
  <path d="M50,62 C46,55 41,48 42,42 C46,44 48,49 50,53 C52,49 54,44 58,42 C59,48 54,55 50,62 Z" fill="#ffffff" opacity="0.15" />
  <path d="M50,62 L50,50" stroke="#800020" stroke-width="1.5" stroke-linecap="round" />
  
  <circle cx="46" cy="68" r="5" fill="none" stroke="#BF953F" stroke-width="1.5" />
  <circle cx="54" cy="68" r="5" fill="none" stroke="#BF953F" stroke-width="1.5" />
  <path d="M49.5,64.5 A5,5 0 0,1 51,71.5" fill="none" stroke="#BF953F" stroke-width="1.5" />
</svg>

